<svg xmlns="http://www.w3.org/2000/svg" version="1.1" xmlns:xlink="http://www.w3.org/1999/xlink" width="512" height="512" x="0" y="0" viewBox="0 0 512 512" style="enable-background:new 0 0 512 512" xml:space="preserve" class=""><g><path d="M42.317 197.643 53.63 186.33l15.997 15.997-11.312 11.313zM16 248h24v16H16zM104 328h16v24h-16zM42.305 314.315l15.998-15.997 11.312 11.313-15.997 15.997zM320 344a64 64 0 0 0-128 0 48 48 0 0 0 0 96h128a48 48 0 0 0 0-96zm0 80H192a32 32 0 1 1 32-32h16a48.078 48.078 0 0 0-31.913-45.218A48.748 48.748 0 0 1 208 344a48 48 0 1 1 81.593 34.286l11.197 11.428a63.55 63.55 0 0 0 17.186-29.643c.673-.042 1.348-.071 2.024-.071a32 32 0 0 1 0 64zM274.264 490.321l39.994-39.994 11.312 11.313-39.994 39.994zM218.27 490.315l39.994-39.994 11.312 11.313-39.994 39.994zM162.276 490.31l39.994-39.995 11.312 11.313-39.994 39.994zM147.022 147.973l11.186 11.441L190.338 128h51.358l-26.279 42.774-44.09 10.754 3.791 15.545 28.398-6.927-12.003 19.538 13.633 8.375 12.285-19.998 7.124 27.917 15.504-3.956-10.96-42.953L256 135.283l26.901 43.786-10.96 42.953 15.504 3.956 7.124-27.917 12.285 19.998 13.633-8.375-12.003-19.538 28.398 6.927 3.791-15.545-44.09-10.754L270.304 128h51.358l32.13 31.414 11.186-11.441L344.549 128H368v-16h-23.451l20.429-19.973-11.186-11.441L321.662 112h-51.358l26.279-42.774 44.09-10.754-3.791-15.545-28.398 6.927 12.003-19.538-13.633-8.375-12.285 19.998-7.124-27.917-15.504 3.956 10.96 42.953L256 104.717l-26.901-43.786 10.96-42.953-15.504-3.956-7.124 27.917-12.285-19.998-13.633 8.375 12.003 19.538-28.398-6.927-3.791 15.545 44.09 10.754L241.696 112h-51.358l-32.13-31.414-11.186 11.441L167.451 112H144v16h23.451zM464 192h-16v16h16a16 16 0 0 1 0 32H320v16h144a32 32 0 0 0 0-64zM432 272h-88v16h88a16 16 0 0 1 0 32h-24v16h24a32 32 0 0 0 0-64zM280 240h24v16h-24zM168 256a56 56 0 1 0-56 56 56.063 56.063 0 0 0 56-56zm-96 0a40 40 0 1 1 40 40 40.046 40.046 0 0 1-40-40zM184 248h24v16h-24zM104 160h16v24h-16zM154.293 309.643l11.313-11.313 15.997 15.997-11.312 11.313z" fill="#fff" opacity="1" data-original="#fff" class=""></path></g></svg>